{
    "asset" : {
        "generator" : "Khronos glTF Blender I/O v1.5.17",
        "version" : "2.0"
    },
    "scene" : 0,
    "scenes" : [
        {
            "name" : "Chair",
            "nodes" : [
                1
            ]
        }
    ],
    "nodes" : [
        {
            "mesh" : 0,
            "name" : "vitra_waver",
            "rotation" : [
                -0.6408563256263733,
                -0.29883626103401184,
                -0.29883626103401184,
                0.6408563852310181
            ],
            "scale" : [
                0.008419950492680073,
                0.008419950492680073,
                0.008419948630034924
            ],
            "translation" : [
                4.378159999847412,
                0.0003570560074876994,
                -2.1503500938415527
            ]
        },
        {
            "children" : [
                0
            ],
            "name" : "chair"
        }
    ],
    "materials" : [
        {
            "doubleSided" : true,
            "name" : "Material__2100442371",
            "pbrMetallicRoughness" : {
                "baseColorFactor" : [
                    0.8549019694328308,
                    0.8117647171020508,
                    0.7137255072593689,
                    1
                ],
                "metallicFactor" : 0,
                "roughnessFactor" : 0.5
            }
        },
        {
            "doubleSided" : true,
            "name" : "Material__2100442372",
            "pbrMetallicRoughness" : {
                "baseColorFactor" : [
                    0.8549019694328308,
                    0.8117647171020508,
                    0.7137255072593689,
                    1
                ],
                "metallicFactor" : 0,
                "roughnessFactor" : 0.5
            }
        },
        {
            "doubleSided" : true,
            "name" : "Material__2100442373",
            "pbrMetallicRoughness" : {
                "baseColorFactor" : [
                    0.8549019694328308,
                    0.8117647171020508,
                    0.7137255072593689,
                    1
                ],
                "metallicFactor" : 0,
                "roughnessFactor" : 0.5
            }
        },
        {
            "doubleSided" : true,
            "name" : "Material__2100442374",
            "pbrMetallicRoughness" : {
                "baseColorFactor" : [
                    0.9882352948188782,
                    0.9882352948188782,
                    0.9882352948188782,
                    1
                ],
                "metallicFactor" : 0,
                "roughnessFactor" : 0.5
            }
        },
        {
            "doubleSided" : true,
            "name" : "Material__2100442375",
            "pbrMetallicRoughness" : {
                "baseColorFactor" : [
                    0,
                    0,
                    0,
                    1
                ],
                "metallicFactor" : 0,
                "roughnessFactor" : 0.5
            }
        },
        {
            "doubleSided" : true,
            "name" : "Material__2100442376",
            "pbrMetallicRoughness" : {
                "baseColorFactor" : [
                    0,
                    0,
                    0,
                    1
                ],
                "metallicFactor" : 0,
                "roughnessFactor" : 0.5
            }
        },
        {
            "doubleSided" : true,
            "name" : "Material__2100442377",
            "pbrMetallicRoughness" : {
                "baseColorFactor" : [
                    0.49803921580314636,
                    0.49803921580314636,
                    0.49803921580314636,
                    1
                ],
                "metallicFactor" : 0,
                "roughnessFactor" : 0.5
            }
        },
        {
            "doubleSided" : true,
            "name" : "Material__2100442378",
            "pbrMetallicRoughness" : {
                "baseColorFactor" : [
                    0.8549019694328308,
                    0.8117647171020508,
                    0.7137255072593689,
                    1
                ],
                "metallicFactor" : 0,
                "roughnessFactor" : 0.5
            }
        }
    ],
    "meshes" : [
        {
            "name" : "vitra_waver",
            "primitives" : [
                {
                    "attributes" : {
                        "POSITION" : 0,
                        "NORMAL" : 1,
                        "TEXCOORD_0" : 2
                    },
                    "indices" : 3,
                    "material" : 0
                },
                {
                    "attributes" : {
                        "POSITION" : 4,
                        "NORMAL" : 5,
                        "TEXCOORD_0" : 6
                    },
                    "indices" : 7,
                    "material" : 1
                },
                {
                    "attributes" : {
                        "POSITION" : 8,
                        "NORMAL" : 9,
                        "TEXCOORD_0" : 10
                    },
                    "indices" : 11,
                    "material" : 2
                },
                {
                    "attributes" : {
                        "POSITION" : 12,
                        "NORMAL" : 13,
                        "TEXCOORD_0" : 14
                    },
                    "indices" : 15,
                    "material" : 3
                },
                {
                    "attributes" : {
                        "POSITION" : 16,
                        "NORMAL" : 17,
                        "TEXCOORD_0" : 18
                    },
                    "indices" : 19,
                    "material" : 4
                },
                {
                    "attributes" : {
                        "POSITION" : 20,
                        "NORMAL" : 21,
                        "TEXCOORD_0" : 22
                    },
                    "indices" : 23,
                    "material" : 5
                },
                {
                    "attributes" : {
                        "POSITION" : 24,
                        "NORMAL" : 25,
                        "TEXCOORD_0" : 26
                    },
                    "indices" : 27,
                    "material" : 6
                },
                {
                    "attributes" : {
                        "POSITION" : 28,
                        "NORMAL" : 29,
                        "TEXCOORD_0" : 30
                    },
                    "indices" : 31,
                    "material" : 7
                }
            ]
        }
    ],
    "accessors" : [
        {
            "bufferView" : 0,
            "componentType" : 5126,
            "count" : 8508,
            "max" : [
                39.31864929199219,
                45.18076705932617,
                102.213623046875
            ],
            "min" : [
                -39.31864929199219,
                -33.01296615600586,
                37.486061096191406
            ],
            "type" : "VEC3"
        },
        {
            "bufferView" : 1,
            "componentType" : 5126,
            "count" : 8508,
            "type" : "VEC3"
        },
        {
            "bufferView" : 2,
            "componentType" : 5126,
            "count" : 8508,
            "type" : "VEC2"
        },
        {
            "bufferView" : 3,
            "componentType" : 5123,
            "count" : 49044,
            "type" : "SCALAR"
        },
        {
            "bufferView" : 4,
            "componentType" : 5126,
            "count" : 3774,
            "max" : [
                40.831302642822266,
                8.939769744873047,
                68.85224914550781
            ],
            "min" : [
                -40.83130645751953,
                -24.917449951171875,
                60.24248504638672
            ],
            "type" : "VEC3"
        },
        {
            "bufferView" : 5,
            "componentType" : 5126,
            "count" : 3774,
            "type" : "VEC3"
        },
        {
            "bufferView" : 6,
            "componentType" : 5126,
            "count" : 3774,
            "type" : "VEC2"
        },
        {
            "bufferView" : 7,
            "componentType" : 5123,
            "count" : 21264,
            "type" : "SCALAR"
        },
        {
            "bufferView" : 8,
            "componentType" : 5126,
            "count" : 2442,
            "max" : [
                23.192291259765625,
                26.42031478881836,
                66.87004089355469
            ],
            "min" : [
                -23.192285537719727,
                11.095924377441406,
                46.01060104370117
            ],
            "type" : "VEC3"
        },
        {
            "bufferView" : 9,
            "componentType" : 5126,
            "count" : 2442,
            "type" : "VEC3"
        },
        {
            "bufferView" : 10,
            "componentType" : 5126,
            "count" : 2442,
            "type" : "VEC2"
        },
        {
            "bufferView" : 11,
            "componentType" : 5123,
            "count" : 14208,
            "type" : "SCALAR"
        },
        {
            "bufferView" : 12,
            "componentType" : 5126,
            "count" : 3791,
            "max" : [
                40.261539459228516,
                44.910892486572266,
                101.85472869873047
            ],
            "min" : [
                -40.26154327392578,
                -41.20956802368164,
                2.407627582550049
            ],
            "type" : "VEC3"
        },
        {
            "bufferView" : 13,
            "componentType" : 5126,
            "count" : 3791,
            "type" : "VEC3"
        },
        {
            "bufferView" : 14,
            "componentType" : 5126,
            "count" : 3791,
            "type" : "VEC2"
        },
        {
            "bufferView" : 15,
            "componentType" : 5123,
            "count" : 17070,
            "type" : "SCALAR"
        },
        {
            "bufferView" : 16,
            "componentType" : 5126,
            "count" : 5748,
            "max" : [
                40.72624588012695,
                24.777997970581055,
                69.57054138183594
            ],
            "min" : [
                -40.72624969482422,
                -45.18076705932617,
                0
            ],
            "type" : "VEC3"
        },
        {
            "bufferView" : 17,
            "componentType" : 5126,
            "count" : 5748,
            "type" : "VEC3"
        },
        {
            "bufferView" : 18,
            "componentType" : 5126,
            "count" : 5748,
            "type" : "VEC2"
        },
        {
            "bufferView" : 19,
            "componentType" : 5123,
            "count" : 25968,
            "type" : "SCALAR"
        },
        {
            "bufferView" : 20,
            "componentType" : 5126,
            "count" : 2800,
            "max" : [
                40.85779571533203,
                -22.159351348876953,
                66.07231140136719
            ],
            "min" : [
                -40.85779571533203,
                -35.63025665283203,
                44.424072265625
            ],
            "type" : "VEC3"
        },
        {
            "bufferView" : 21,
            "componentType" : 5126,
            "count" : 2800,
            "type" : "VEC3"
        },
        {
            "bufferView" : 22,
            "componentType" : 5126,
            "count" : 2800,
            "type" : "VEC2"
        },
        {
            "bufferView" : 23,
            "componentType" : 5123,
            "count" : 13656,
            "type" : "SCALAR"
        },
        {
            "bufferView" : 24,
            "componentType" : 5126,
            "count" : 1200,
            "max" : [
                41.09132766723633,
                -23.161392211914062,
                65.08274841308594
            ],
            "min" : [
                -41.09132766723633,
                -34.61912536621094,
                47.508544921875
            ],
            "type" : "VEC3"
        },
        {
            "bufferView" : 25,
            "componentType" : 5126,
            "count" : 1200,
            "type" : "VEC3"
        },
        {
            "bufferView" : 26,
            "componentType" : 5126,
            "count" : 1200,
            "type" : "VEC2"
        },
        {
            "bufferView" : 27,
            "componentType" : 5123,
            "count" : 2952,
            "type" : "SCALAR"
        },
        {
            "bufferView" : 28,
            "componentType" : 5126,
            "count" : 2386,
            "max" : [
                39.297607421875,
                40.701229095458984,
                94.00891876220703
            ],
            "min" : [
                -39.297607421875,
                -24.77912712097168,
                42.03887939453125
            ],
            "type" : "VEC3"
        },
        {
            "bufferView" : 29,
            "componentType" : 5126,
            "count" : 2386,
            "type" : "VEC3"
        },
        {
            "bufferView" : 30,
            "componentType" : 5126,
            "count" : 2386,
            "type" : "VEC2"
        },
        {
            "bufferView" : 31,
            "componentType" : 5123,
            "count" : 12336,
            "type" : "SCALAR"
        }
    ],
    "bufferViews" : [
        {
            "buffer" : 0,
            "byteLength" : 102096,
            "byteOffset" : 0
        },
        {
            "buffer" : 0,
            "byteLength" : 102096,
            "byteOffset" : 102096
        },
        {
            "buffer" : 0,
            "byteLength" : 68064,
            "byteOffset" : 204192
        },
        {
            "buffer" : 0,
            "byteLength" : 98088,
            "byteOffset" : 272256
        },
        {
            "buffer" : 0,
            "byteLength" : 45288,
            "byteOffset" : 370344
        },
        {
            "buffer" : 0,
            "byteLength" : 45288,
            "byteOffset" : 415632
        },
        {
            "buffer" : 0,
            "byteLength" : 30192,
            "byteOffset" : 460920
        },
        {
            "buffer" : 0,
            "byteLength" : 42528,
            "byteOffset" : 491112
        },
        {
            "buffer" : 0,
            "byteLength" : 29304,
            "byteOffset" : 533640
        },
        {
            "buffer" : 0,
            "byteLength" : 29304,
            "byteOffset" : 562944
        },
        {
            "buffer" : 0,
            "byteLength" : 19536,
            "byteOffset" : 592248
        },
        {
            "buffer" : 0,
            "byteLength" : 28416,
            "byteOffset" : 611784
        },
        {
            "buffer" : 0,
            "byteLength" : 45492,
            "byteOffset" : 640200
        },
        {
            "buffer" : 0,
            "byteLength" : 45492,
            "byteOffset" : 685692
        },
        {
            "buffer" : 0,
            "byteLength" : 30328,
            "byteOffset" : 731184
        },
        {
            "buffer" : 0,
            "byteLength" : 34140,
            "byteOffset" : 761512
        },
        {
            "buffer" : 0,
            "byteLength" : 68976,
            "byteOffset" : 795652
        },
        {
            "buffer" : 0,
            "byteLength" : 68976,
            "byteOffset" : 864628
        },
        {
            "buffer" : 0,
            "byteLength" : 45984,
            "byteOffset" : 933604
        },
        {
            "buffer" : 0,
            "byteLength" : 51936,
            "byteOffset" : 979588
        },
        {
            "buffer" : 0,
            "byteLength" : 33600,
            "byteOffset" : 1031524
        },
        {
            "buffer" : 0,
            "byteLength" : 33600,
            "byteOffset" : 1065124
        },
        {
            "buffer" : 0,
            "byteLength" : 22400,
            "byteOffset" : 1098724
        },
        {
            "buffer" : 0,
            "byteLength" : 27312,
            "byteOffset" : 1121124
        },
        {
            "buffer" : 0,
            "byteLength" : 14400,
            "byteOffset" : 1148436
        },
        {
            "buffer" : 0,
            "byteLength" : 14400,
            "byteOffset" : 1162836
        },
        {
            "buffer" : 0,
            "byteLength" : 9600,
            "byteOffset" : 1177236
        },
        {
            "buffer" : 0,
            "byteLength" : 5904,
            "byteOffset" : 1186836
        },
        {
            "buffer" : 0,
            "byteLength" : 28632,
            "byteOffset" : 1192740
        },
        {
            "buffer" : 0,
            "byteLength" : 28632,
            "byteOffset" : 1221372
        },
        {
            "buffer" : 0,
            "byteLength" : 19088,
            "byteOffset" : 1250004
        },
        {
            "buffer" : 0,
            "byteLength" : 24672,
            "byteOffset" : 1269092
        }
    ],
    "buffers" : [
        {
            "byteLength" : 1293764,
            "uri" : "data:application/octet-stream;base64,"
        }
    ]
}
